<svg width="23" height="22" viewBox="0 0 23 22" fill="none" xmlns="http://www.w3.org/2000/svg">
<path d="M11.0086 5.11758C7.88538 5.11758 5.36618 7.52227 5.36618 10.5035C5.36618 13.4848 7.88538 15.8895 11.0086 15.8895C14.1318 15.8895 16.651 13.4848 16.651 10.5035C16.651 7.52227 14.1318 5.11758 11.0086 5.11758ZM11.0086 14.0051C8.99029 14.0051 7.34029 12.4348 7.34029 10.5035C7.34029 8.57227 8.98538 7.00195 11.0086 7.00195C13.0318 7.00195 14.6769 8.57227 14.6769 10.5035C14.6769 12.4348 13.0269 14.0051 11.0086 14.0051V14.0051ZM18.1979 4.89727C18.1979 5.5957 17.6086 6.15352 16.8818 6.15352C16.1501 6.15352 15.5657 5.59102 15.5657 4.89727C15.5657 4.20352 16.155 3.64102 16.8818 3.64102C17.6086 3.64102 18.1979 4.20352 18.1979 4.89727ZM21.9349 6.17227C21.8515 4.48945 21.4488 2.99883 20.1573 1.7707C18.8706 0.542578 17.309 0.158203 15.5461 0.0738281C13.7291 -0.0246094 8.28315 -0.0246094 6.46618 0.0738281C4.70815 0.153516 3.14654 0.537891 1.85502 1.76602C0.563505 2.99414 0.165737 4.48477 0.0773437 6.16758C-0.0257812 7.90195 -0.0257812 13.1004 0.0773437 14.8348C0.160826 16.5176 0.563505 18.0082 1.85502 19.2363C3.14654 20.4645 4.70324 20.8488 6.46618 20.9332C8.28315 21.0316 13.7291 21.0316 15.5461 20.9332C17.309 20.8535 18.8706 20.4691 20.1573 19.2363C21.4439 18.0082 21.8465 16.5176 21.9349 14.8348C22.0381 13.1004 22.0381 7.90664 21.9349 6.17227V6.17227ZM19.5876 16.6957C19.2046 17.6145 18.4631 18.3223 17.4956 18.6926C16.047 19.241 12.6095 19.1145 11.0086 19.1145C9.4077 19.1145 5.96529 19.2363 4.52154 18.6926C3.55904 18.327 2.81752 17.6191 2.42958 16.6957C1.85502 15.3129 1.98761 12.0316 1.98761 10.5035C1.98761 8.97539 1.85993 5.68945 2.42958 4.31133C2.81261 3.39258 3.55413 2.68477 4.52154 2.31445C5.9702 1.76602 9.4077 1.89258 11.0086 1.89258C12.6095 1.89258 16.0519 1.7707 17.4956 2.31445C18.4581 2.68008 19.1997 3.38789 19.5876 4.31133C20.1622 5.69414 20.0296 8.97539 20.0296 10.5035C20.0296 12.0316 20.1622 15.3176 19.5876 16.6957Z" fill="url(#paint0_linear_2_209)"/>
<defs>
<linearGradient id="paint0_linear_2_209" x1="22.0123" y1="-3.50117" x2="-8.39547" y2="6.6461" gradientUnits="userSpaceOnUse">
<stop stop-color="#F1B8D2" stop-opacity="0.74"/>
<stop offset="1" stop-color="#95BBE9" stop-opacity="0.79"/>
</linearGradient>
</defs>
</svg>
