<svg enable-background="new 0 0 512 512" viewBox="0 0 512 512" xmlns="http://www.w3.org/2000/svg"><g fill="none" stroke="#000" stroke-miterlimit="10"><path d="m137.1 91.3 1.8-2.9c-.5.9-1.2 1.8-1.8 2.9z" stroke-width="12"/><path d="m484 84.9c-35.8-35.7-306.3-35.7-342.1 0-.9.9-1.7 1.9-2.5 3-.1.1-.2.2-.3.4l-.1.1-1.8 2.9-136 213.7 90.5 57.6 25.6-40.2c3.7 50.3 11.9 92.1 24.5 104.7 35.8 35.8 306.3 35.8 342.1 0s35.8-306.4.1-342.2zm-83.7 258.5c-18.3 18.3-156.6 18.3-174.9 0s-18.3-156.6 0-174.9 156.6-18.3 174.9 0 18.3 156.6 0 174.9z" stroke-width="12"/><path d="m139.3 88c-.1.1-.2.2-.3.4z" stroke-width="12"/></g></svg>